<svg xmlns="http://www.w3.org/2000/svg" viewBox="0 0 28.004 32"><path fill="#D07C40" d="M2.003 0h24v9h-24V0z"/><path fill="#F4B459" d="M28.004 7v23a2 2 0 0 1-2 2h-24a2 2 0 0 1-2-2V7h28z"/><path fill="#F4B459" d="M2.003 7.969H4.99l.002-4.949L2.002 0l.001 7.969zm21.026-4.995L22.998 8h3.006V0l-2.975 2.974z"/><path fill="#E3911C" d="M5.003 6.999V3L0 7.003l5.003-.004zM23.004 3v3.984l4.98-.003L23.004 3z"/><path fill="#CF984A" d="M6.003 12a1 1 0 1 0 0 2 1 1 0 0 0 0-2zm16.001 0a1 1 0 1 0-.002 1.998A1 1 0 0 0 22.004 12z"/><path fill="#CF984A" d="M5.669 13.999c.58 0 .703.684.703.684.002 4.378 3.288 7.929 7.622 7.929 4.33 0 7.642-3.551 7.644-7.929 0 0 .062-.684.66-.684.577 0 .707.684.707.684 0 5.146-3.912 9.316-9 9.316s-9-4.17-9-9.316c-.002.001.067-.684.664-.684z"/><path fill="#FDFBF7" d="M5.669 12.999c.58 0 .703.684.703.684.002 4.378 3.288 7.929 7.622 7.929 4.33 0 7.642-3.551 7.644-7.929 0 0 .062-.684.66-.684.577 0 .707.684.707.684 0 5.146-3.912 9.316-9 9.316s-9-4.17-9-9.316c-.002.001.067-.684.664-.684z"/></svg>