<svg xmlns="http://www.w3.org/2000/svg" viewBox="0 0 64 64"><path fill="#ebebeb" d="M7.6 10.2h39.3V64H7.6z"/><path fill="#dadde1" d="M56.4 10.2V64L51 58.3 46.9 64V10.2z"/><path fill="#9da6b1" d="M56.4 64h-9.5l4.1-5.7z"/><path fill="#ebebeb" d="M56.4 10.2V64L51 58.3V10.2z"/><path fill="#e95c60" d="M36.9 59.2c-.1.5-.3.9-.6 1.3-.6 1.1-1.6 1.9-2.8 2.5l-2.3 1H20.8l-3.1-7.1-.1-.2c-.5-1.2-.6-2.5-.4-3.7.1-.4.2-.7.3-1 .1-.1.1-.2.1-.3.6-1.2 1.6-2.2 2.9-2.8 1.5-.7 3.1-.6 4.6-.1l1.2.6c.2.2.5.4.7.6l.3.3c.4.5.8 1 1.1 1.6l.1.2.2-.1c.4-.2.7-.3 1.1-.4.1 0 .3 0 .4-.1h.1c.4-.1.9-.1 1.3 0 .2 0 .4 0 .6.1.4.1.8.2 1.1.3.3.1.6.3.9.4.1.1.2.1.3.2.3.2.6.5.9.7.5.5.9 1.1 1.2 1.8.6 1.4.6 2.8.3 4.2zm-23.4-.5c.3.1.5.2.7.5l.4.4.3.4.8 1 .3.3-2.1 1.7c-.2.2-.5.3-.8.3h-.4c-.3-.1-.6-.2-.8-.5-.2-.3-.3-.7-.3-1 0-.1 0-.2.1-.3 0-.1 0-.1.1-.2 0 0 0-.1.1-.1l.3-.3-.2-.2v-.1c0-.1-.1-.2-.1-.3V59.6c0-.1.1-.2.1-.2.1-.1.2-.3.3-.4.3-.2.6-.3.9-.3h.3zm1.6-3.6c-.3.2-.7.3-1.1.3l-.8-.1-.6-.1-1.8-.2h-.6l.4-3.7v-.1c0-.4.2-.8.5-1.1.1-.1.2-.2.3-.2 0 0 .1 0 .1-.1.4-.2.8-.4 1.2-.3.5.1 1 .3 1.3.7.1.1.2.2.2.4 0 .1.1.2.1.3v.1c0 .2.1.4 0 .6v.1h.1c.1 0 .2 0 .4.1h.1c.1 0 .2.1.4.2.1 0 .1.1.2.1l.3.3c.1.1.1.2.2.3 0 0 0 .1.1.1.1.1.1.2.1.3.1.2.1.4.1.7 0 .5-.3.9-.6 1.2-.4-.1-.5 0-.6.1zm18.3-6c-.3.2-.7.3-1.1.3l-.8-.1-.6-.1-1.8-.2h-.6l.4-3.7v-.1c0-.4.2-.8.5-1.1.1-.1.2-.2.3-.2 0 0 .1 0 .1-.1.4-.2.8-.4 1.2-.3.5.1 1 .3 1.3.7.1.1.2.2.2.4 0 .1.1.2.1.3v.1c0 .2.1.4 0 .6v.1h.1c.1 0 .2 0 .4.1h.1c.1 0 .2.1.4.2.1 0 .1.1.2.1l.3.3c.1.1.1.2.2.3 0 0 0 .1.1.1.1.1.1.2.1.3.1.2.1.4.1.7 0 .5-.3.9-.6 1.2-.4-.1-.5 0-.6.1zm-12.3-3c0 .2-.1.3-.3.4l-.3.2-.2.2-.6.5-.2.2-1-1.2c-.1-.1-.2-.3-.2-.5v-.1c0-.2.1-.3.3-.5.2-.1.4-.2.6-.2h.4c.1 0 .1.1.2.2l.1-.1c.1 0 .1 0 .2-.1h.4s.1 0 .1.1c.1 0 .2.1.2.2.1.2.2.3.2.5.1.1.1.2.1.2zm-3.3-5.3c0 .4-.1.8-.3 1.2l-.5.6-.4.5-1 1.5-.3.5L12 43c-.4-.2-.6-.6-.7-1 0-.1-.1-.2-.1-.3v-.1c0-.4.1-.9.3-1.3.3-.4.8-.7 1.3-.8H13.6c.2.1.4.1.6.3.1-.1.2-.2.2-.3l.1-.1c.1-.1.2-.2.3-.2.1 0 .1-.1.2-.1s.2-.1.4-.1h.4c.1 0 .2 0 .4.1s.4.1.6.3c.4.3.7.7.8 1.1.1 0 .2.1.2.3zm8.7-1.9c0 .2-.2.5-.3.6l-.4.3-.3.3-.8.8-.3.3-1.6-1.7c-.2-.2-.3-.4-.3-.7V38.5c0-.3.1-.5.4-.7.2-.2.5-.3.8-.3h.3c.1 0 .1 0 .2.1h.1c.1.1.2.1.3.2.1-.1.1-.1.2-.1h.1c.1 0 .2-.1.2-.1h.6c.1 0 .1 0 .2.1s.2.1.3.2c.2.2.3.5.3.7v.3z"/><circle cx="20.5" cy="15.1" r="2.2" fill="#9da6b1"/><path fill="#dadde1" d="M21.6 15.1c0 .6-.5 1.1-1.1 1.1s-1.1-.5-1.1-1.1.5-1.1 1.1-1.1 1.1.5 1.1 1.1z"/><path fill="#9da6b1" d="M36.9 15.1c0 1.2-1 2.2-2.2 2.2s-2.2-1-2.2-2.2 1-2.2 2.2-2.2 2.2 1 2.2 2.2z"/><path fill="#dadde1" d="M35.8 15.1c0 .6-.5 1.1-1.1 1.1s-1.1-.5-1.1-1.1.5-1.1 1.1-1.1 1.1.5 1.1 1.1z"/><path fill="#9da6b1" d="M21.1 15.2h-1.3V5.5c0-3 2.5-5.5 5.5-5.5s5.5 2.5 5.5 5.5v4.7h-1.3V5.5c0-2.3-1.9-4.2-4.2-4.2s-4.2 1.9-4.2 4.2v9.7zM35.4 15.2h-1.3V5.5c0-3 2.5-5.5 5.5-5.5s5.5 2.5 5.5 5.5v4.7h-1.3V5.5c0-2.3-1.9-4.2-4.2-4.2-2.3 0-4.2 1.9-4.2 4.2v9.7z"/></svg>